<?xml version="1.0" encoding="UTF-8"?>
<svg id="_圖層_2" data-name="圖層 2" xmlns="http://www.w3.org/2000/svg" version="1.1" viewBox="0 0 267.3 82.4">
  <defs>
    <style>
      .cls-1 {
        fill: #ff5629;
        stroke-width: 0px;
      }
    </style>
  </defs>
  <g>
    <rect class="cls-1" x="86" y="10.7" width="11.1" height="37"/>
    <path class="cls-1" d="M73.5,25.3c-1.3-3.1-2.5-6.2-3.3-7.7-2.5-4.9-5.8-7.6-10.9-7.6s-8.4,2.6-10.9,7.6c-.8,1.5-2,4.5-3.3,7.7-2.5,6.1-4.5,9.7-8.3,10.7v12.1c10.3-1.6,14.9-8.3,18.3-17.8.6-1.6,1.2-3.4,1.6-4.5.8-2.1,1.3-3.3,2.6-3.3s1.8,1.2,2.6,3.3c.4,1.1,1.1,2.9,1.6,4.5,3.4,9.5,8,16.2,18.3,17.8v-12.1c-3.8-1-5.8-4.7-8.3-10.7Z"/>
    <polygon class="cls-1" points="40.4 21 40.4 10.7 2.6 10.7 2.6 21 16 21 16 47.6 27.1 47.6 27.1 21 40.4 21"/>
    <path class="cls-1" d="M253.5,10.7v25.1c0,.7-.3,1.1-.7,1.1s-1-.7-1.7-2.3c-2-4.4-4.2-9.3-6.4-13.6-3-5.7-5.6-10.8-12.8-10.8s-10.7,4.8-10.7,12.9v24.6h11.1v-25.1c0-.7.3-1.1.7-1.1s1,.7,1.7,2.3c2,4.4,4.2,9.3,6.4,13.6,3,5.7,5.6,10.8,12.8,10.8s10.7-4.8,10.7-12.9V10.7h-11.1Z"/>
    <path class="cls-1" d="M157.8,32.7c0,1.9-.3,3.4-1.7,3.4s-2.7-3.1-5.2-9.5c-1.7-4.4-3-7.4-3.7-9-2.2-4.9-6-7.5-11.2-7.5s-9,2.6-11.2,7.5c-.7,1.6-2,4.5-3.7,9-2.5,6.4-3.5,9.5-5.2,9.5s-1.7-1.5-1.7-3.4V10.7h-11.1v24c0,8.6,4.8,13.5,11.9,13.5s11.8-5.7,15.3-15c1.3-3.6,2.2-5.8,2.8-7.3.8-2,1.6-3.3,2.8-3.3s2,1.3,2.8,3.3c.6,1.5,1.5,3.7,2.8,7.3,3.5,9.3,6.9,15,15.3,15s11.9-4.8,11.9-13.5V10.7h-11.1v22Z"/>
    <path class="cls-1" d="M208.7,25.3c-1.3-3.1-2.5-6.2-3.3-7.7-2.5-4.9-5.8-7.6-10.9-7.6s-8.4,2.6-10.9,7.6c-.8,1.5-2,4.5-3.3,7.7-2.5,6.1-4.5,9.7-8.3,10.7v12.1c10.3-1.6,14.9-8.3,18.3-17.8.6-1.6,1.2-3.4,1.6-4.5.8-2.1,1.3-3.3,2.6-3.3s1.8,1.2,2.6,3.3c.4,1.1,1.1,2.9,1.6,4.5,3.4,9.5,8,16.2,18.3,17.8v-12.1c-3.8-1-5.8-4.7-8.3-10.7Z"/>
  </g>
  <g>
    <path class="cls-1" d="M58.8,62.7l2,6.2v.4c.1,0,.2-.4.2-.4l1.5-4.9c.3-1.2,1-1.5,1.7-1.5s1.4.3,1.7,1.5l1.4,4.9v.5c.1,0,.3-.5.3-.5l2-6.2h2.2l-2.8,8.3c-.4,1.2-.9,1.3-1.6,1.3s-1.3-.4-1.6-1.3l-1.6-5.3v-.4c-.1,0-.2.3-.2.3l-1.6,5.3c-.3,1-.9,1.3-1.5,1.3s-1.3-.5-1.6-1.4l-2.8-8.2h2.3Z"/>
    <path class="cls-1" d="M78.5,63.9l3.4,8.2h-2.4l-.8-2h-4.3l-.8,2h-2.3l3.5-8.2c.4-.9.9-1.5,1.9-1.5s1.4.6,1.8,1.5ZM78.1,68.5l-1.5-3.7-1.5,3.7h2.9Z"/>
    <path class="cls-1" d="M84.6,70.7l-3.2-8.1h2.3l2.8,7.2,2.8-7.2h2.3l-3.2,8.1c-.4,1-.9,1.6-1.9,1.6s-1.5-.6-1.9-1.6Z"/>
    <path class="cls-1" d="M101.5,62.7v1.8h-6.5v1.9h5.2v1.8h-5.2v2.1h6.5v1.8h-6.9c-1.2,0-1.8-.5-1.8-1.6v-7.8h8.7Z"/>
    <path class="cls-1" d="M109.6,69.5c0-.4-.2-.7-.9-.9l-2.8-.6c-2.1-.4-3-1.2-3-2.8s1.2-2.5,3.3-2.5h4.9v1.8h-5.1c-.7,0-.9.3-.9.7s.3.7,1.3.9l2.9.6c1.4.3,2.7,1,2.7,2.6s-1.2,2.7-3.3,2.7h-5.4v-1.8h5.5c.7,0,1.1-.3,1.1-.8Z"/>
    <path class="cls-1" d="M117.3,67.4c0-3.5,2.9-4.9,5.3-4.9s5.3,1.5,5.3,4.9-2.7,4.9-5.3,4.9-5.3-1.5-5.3-4.9ZM125.6,67.4c0-2.1-1.5-3.1-3-3.1s-3.1.9-3.1,3.1,1.6,3.1,3.1,3.1,3-.9,3-3.1Z"/>
    <path class="cls-1" d="M138.4,62.7v1.9h-6.5v1.9h5.2v1.9h-5.2v3.8h-2.2v-7.8c0-1.1.6-1.6,1.8-1.6h6.9Z"/>
    <path class="cls-1" d="M145.5,62.7l2,6.2v.4c.1,0,.2-.4.2-.4l1.5-4.9c.3-1.2,1-1.5,1.7-1.5s1.4.3,1.7,1.5l1.4,4.9v.5c.1,0,.3-.5.3-.5l2-6.2h2.2l-2.8,8.3c-.4,1.2-.9,1.3-1.6,1.3s-1.3-.4-1.6-1.3l-1.6-5.3v-.4c-.1,0-.2.3-.2.3l-1.6,5.3c-.3,1-.9,1.3-1.5,1.3s-1.3-.5-1.6-1.4l-2.8-8.2h2.3Z"/>
    <path class="cls-1" d="M159.1,67.4c0-3.5,2.9-4.9,5.3-4.9s5.3,1.5,5.3,4.9-2.7,4.9-5.3,4.9-5.3-1.5-5.3-4.9ZM167.5,67.4c0-2.1-1.5-3.1-3-3.1s-3.1.9-3.1,3.1,1.6,3.1,3.1,3.1,3-.9,3-3.1Z"/>
    <path class="cls-1" d="M177.9,71.2l-4.4-5.9v.5s0,6.4,0,6.4h-2.1v-8.1c0-1,.7-1.6,1.5-1.6s1.4.4,2.1,1.3l4.5,5.9v-.5s0-6.5,0-6.5h2.1v7.9c0,1.1-.5,1.8-1.6,1.8s-1.3-.2-2-1.1Z"/>
    <path class="cls-1" d="M185.6,62.7h2.7c2.8,0,5.3,1.2,5.3,4.7s-2.5,4.8-5.3,4.8h-4.5v-7.8c0-1.1.6-1.6,1.8-1.6ZM191.3,67.3c0-2.1-1.5-2.8-3.1-2.8h-2.3v5.8h2.3c1.6,0,3.1-.7,3.1-3Z"/>
    <path class="cls-1" d="M204.1,62.7v1.8h-6.5v1.9h5.2v1.8h-5.2v2.1h6.5v1.8h-6.9c-1.2,0-1.8-.5-1.8-1.6v-7.8h8.7Z"/>
    <path class="cls-1" d="M212.3,72.1l-3.9-3.5-.3-.2v3.8h-2.2v-7.8c0-1.2.6-1.7,1.8-1.7h3.4c2.1,0,3.9.9,3.9,3s-1.6,2.9-3.6,3l4,3.5h0s-3.2,0-3.2,0ZM212.7,65.7c0-.9-.8-1.2-1.9-1.2h-2.7v2.5h2.7c1.1,0,1.9-.4,1.9-1.3Z"/>
  </g>
</svg>